<svg width="152" height="26" viewBox="0 0 152 26" fill="none" xmlns="http://www.w3.org/2000/svg">
<path d="M0.941162 25.5342H4.44095V0.0585938H0.941162V25.5342Z" fill="black"/>
<path d="M22.917 22.5318V25.5342H26.2569V0.0585938H22.917V10.3803C18.4046 3.39849 7.40777 7.83984 7.40777 16.4738C7.40777 21.6791 11.3872 25.9073 16.6458 25.9073C19.2928 25.9073 21.478 24.7525 22.917 22.5318ZM10.7477 16.4561C10.7477 12.9918 13.4658 10.2026 16.9478 10.2026C20.4121 10.2026 23.1479 13.0096 23.1479 16.4561C23.1479 19.9381 20.4298 22.674 16.9478 22.674C13.448 22.674 10.7477 19.9381 10.7477 16.4561Z" fill="black"/>
<path d="M32.5814 14.9282C33.6828 8.74588 42.7787 8.62152 44.1289 14.9282H32.5814ZM46.545 22.3187L44.1289 20.169C42.6899 21.8035 40.7535 22.7273 38.5683 22.7273C35.7081 22.7273 33.1854 20.9152 32.5636 18.0727H47.5754C48.3215 12.2634 44.4309 6.96934 38.3551 6.96934C33.0966 6.96934 29.046 11.2508 29.046 16.4561C29.046 25.8184 40.5758 29.0873 46.545 22.3187Z" fill="black"/>
<path d="M65.1631 22.5318V25.5342H68.503V7.34241H65.1631V10.3803C60.6507 3.39849 49.6539 7.83984 49.6539 16.4738C49.6539 21.6791 53.6334 25.9073 58.8919 25.9073C61.539 25.9073 63.7241 24.7525 65.1631 22.5318ZM52.9938 16.4561C52.9938 12.9918 55.7119 10.2026 59.194 10.2026C62.6582 10.2026 65.3941 13.0096 65.3941 16.4561C65.3941 19.9381 62.676 22.674 59.194 22.674C55.6942 22.674 52.9938 19.9381 52.9938 16.4561Z" fill="black"/>
<path d="M75.698 10.3448V0.0585938H72.3581V25.5342H75.698V22.4963C80.1394 29.4603 91.2072 25.0723 91.2072 16.4028C91.2072 11.1975 87.2278 6.96934 81.9692 6.96934C79.3222 6.96934 77.137 8.14186 75.698 10.3448ZM87.8673 16.4205C87.8673 19.8848 85.1492 22.674 81.6672 22.674C78.2029 22.674 75.4671 19.867 75.4671 16.4205C75.4671 12.9385 78.1852 10.2026 81.6672 10.2026C85.167 10.2026 87.8673 12.9385 87.8673 16.4205Z" fill="black"/>
<path d="M108.866 22.5318V25.5342H112.206V7.34241H108.866V10.3803C104.354 3.39849 93.3568 7.83984 93.3568 16.4738C93.3568 21.6791 97.3363 25.9073 102.595 25.9073C105.242 25.9073 107.427 24.7525 108.866 22.5318ZM96.6967 16.4561C96.6967 12.9918 99.4148 10.2026 102.897 10.2026C106.361 10.2026 109.097 13.0096 109.097 16.4561C109.097 19.9381 106.379 22.674 102.897 22.674C99.3971 22.674 96.6967 19.9381 96.6967 16.4561Z" fill="black"/>
<path d="M119.383 7.34241H116.043V25.5342H119.383V15.3191C119.383 12.4588 120.84 10.2026 123.896 10.2026C127.04 10.2026 128.408 12.4056 128.408 15.3191V25.5342H131.766V15.2836C131.766 10.9488 129.847 6.96934 124.997 6.96934C122.403 6.96934 120.378 8.14186 119.383 10.5757V7.34241Z" fill="black"/>
<path d="M135.425 0.0585938V25.5342H138.801V17.9128H140.488L147.524 25.5342H152L143.491 16.2074L151.041 7.34241H146.689L140.488 14.5374H138.801V0.0585938H135.425Z" fill="black"/>
</svg>
