<svg width="41" height="44" viewBox="0 0 41 44" fill="none" xmlns="http://www.w3.org/2000/svg">
<path d="M9.22137 11.7302C10.3178 12.7322 11.6175 13.486 13.0317 13.94C13.7959 14.2394 14.4774 14.6215 14.1367 15.5715C13.7959 16.5215 13.0008 16.408 12.2263 16.2014C10.637 15.7494 9.15254 14.9879 7.85831 13.9606C7.66222 13.7715 7.42853 13.6257 7.17241 13.5329C6.9163 13.44 6.6435 13.4021 6.37176 13.4215C6.10002 13.441 5.83542 13.5175 5.59517 13.6459C5.35492 13.7744 5.1444 13.952 4.97729 14.1672C3.3664 15.6851 1.80714 17.2031 1.20822 19.4438C0.906251 20.2938 0.883639 21.218 1.14368 22.0817C1.40373 22.9455 1.93284 23.7036 2.6539 24.2455C6.16708 26.9209 10.391 28.5013 14.7975 28.7891C15.1733 28.8972 15.5732 28.8869 15.9428 28.7593C16.3124 28.6318 16.6337 28.3934 16.8628 28.0766C17.2758 27.3021 16.6666 26.6412 16.2742 26.0113C15.124 24.3865 13.7861 22.903 12.2883 21.5917C11.8959 21.2096 11.4828 20.8482 11.1317 20.4352C10.8956 20.2245 10.7498 19.9308 10.7248 19.6153C10.6998 19.2999 10.7975 18.9869 10.9975 18.7417C11.0918 18.616 11.2121 18.5122 11.3502 18.4372C11.4883 18.3622 11.6409 18.3178 11.7976 18.307C11.9543 18.2963 12.1116 18.3194 12.2586 18.3748C12.4056 18.4302 12.539 18.5165 12.6497 18.6281C15.3868 20.5963 17.6166 23.1871 19.1552 26.1869C19.5194 26.864 19.6082 27.6557 19.403 28.3967C18.7008 30.2348 19.6612 31.5668 20.5802 32.9299C21.585 34.5728 22.9045 36.0011 24.4629 37.1327C25.289 37.6799 25.9085 37.8761 26.2906 36.668C27.3727 33.6029 29.5301 31.0345 32.3624 29.4396C34.2449 28.4126 35.7068 26.757 36.4929 24.7618C36.9369 23.4917 37.4429 23.7292 38.1554 24.576C41.3875 28.4793 41.181 35.4805 37.7011 39.2185C34.4896 42.6572 30.3901 43.948 25.8363 43.9893C18.6079 44.0616 11.4415 44.0409 4.24413 43.9893C1.14627 43.9893 0.113647 42.8018 0.113647 39.6936C0.113647 27.8391 0.113647 15.9811 0.113647 4.11974C0.113647 1.02188 1.14627 -0.0107422 4.17185 -0.0107422C10.8942 -0.0107422 17.5959 -0.010746 24.3183 0.08219C27.4882 0.112306 30.6071 0.88319 33.426 2.3333C38.713 5.03877 41.1604 9.70623 40.3446 15.5509C40.0994 17.2673 39.3847 18.8825 38.2793 20.2183C36.6802 22.1932 34.7303 23.8561 32.5276 25.1233C31.755 25.5734 30.9032 25.8714 30.0184 26.001C29.2542 26.1146 28.3868 26.2075 28.1287 25.2575C27.8705 24.3075 28.645 23.8222 29.5021 23.6156C32.1765 22.9548 33.994 21.0857 35.832 19.2373C36.1456 18.9652 36.3468 18.5861 36.3964 18.1739C36.446 17.7616 36.3405 17.3457 36.1005 17.0069C35.1815 15.233 33.8412 13.7119 32.1972 12.5769C29.256 10.6563 25.8713 9.52214 22.3666 9.28285C20.9623 9.14861 20.7041 9.42741 21.1068 10.7595C22.1395 14.1155 24.1118 16.5732 27.6124 17.5748L28.645 17.833C29.533 18.0601 30.576 18.277 30.2559 19.4852C29.9358 20.6933 28.8928 20.4145 28.0048 20.239C23.3373 19.2786 20.4356 16.3667 18.9177 11.978C17.9367 9.12798 17.8851 9.08666 14.9318 9.70623C12.8984 9.93477 10.9448 10.6272 9.22137 11.7302Z" fill="#6366F1"/>
</svg>
